<?xml version="1.0" standalone="no"?> <!DOCTYPE svg PUBLIC "-//W3C//DTD SVG 1.0//EN" "http://www.w3.org/TR/2001/REC-SVG-20010904/DTD/svg10.dtd" > <svg xmlns="http://www.w3.org/2000/svg" width="100%" height="100%">
<defs >
<font id="AmigaForever" horiz-adv-x="849" ><font-face
    font-family="Amiga Forever Pro2"
    units-per-em="1000"
    panose-1="2 0 0 0 0 0 0 0 0 0"
    ascent="875"
    descent="-125"
    alphabetic="0" />
<missing-glyph horiz-adv-x="500" />
<glyph unicode=" " glyph-name="space" horiz-adv-x="1000" />
<glyph unicode="!" glyph-name="exclam" horiz-adv-x="750" d="M250 875V375H500V875H250ZM250 125V0H500V125H250Z" />
<glyph unicode="&quot;" glyph-name="quotedbl" horiz-adv-x="750" d="M0 875V625H250V875H0ZM375 875V625H625V875H375Z" />
<glyph unicode="#" glyph-name="numbersign" horiz-adv-x="1000" d="M875 250V375H750V500H875V625H750V875H500V625H375V875H125V625H0V500H125V375H0V250H125V0H375V250H500V0H750V250H875ZM375 500H500V375H375V500Z" />
<glyph unicode="$" glyph-name="dollar" horiz-adv-x="875" d="M500 0V125H625V250H750V375H625V500H250V625H750V750H500V875H250V750H125V625H0V500H125V375H500V250H0V125H250V0H500Z" />
<glyph unicode="%" glyph-name="percent" horiz-adv-x="1000" d="M250 375V500H125V625H0V375H250V250H125V126H0V0H250V125H375V250H500V375H625V250H750V125H875V375H625V500H750V625H875V750H625V625H500V500H375V750H125V625H250V500H375V375H250ZM500 250V0H750V125H625V250H500Z"
/>
<glyph unicode="&amp;" glyph-name="ampersand" horiz-adv-x="1125" d="M125 0H1000V125H875V250H750V375H875V500H625V625H750V750H625V875H250V750H125V375H0V125H125V0ZM375 375V250H500V125H250V375H375ZM500 500H375V750H500V500ZM500 500H625V375H500V500Z" />
<glyph unicode="&apos;" glyph-name="quotesingle" horiz-adv-x="625" d="M250 875V625H125V500H375V625H500V875H250Z" />
<glyph unicode="(" glyph-name="parenleft" horiz-adv-x="875" d="M375 625H250V250H375V125H500V0H750V125H625V250H500V625H625V750H750V875H500V750H375V625Z" />
<glyph unicode=")" glyph-name="parenright" horiz-adv-x="875" d="M625 625V750H500V875H250V750H375V625H500V250H375V125H250V0H500V125H625V250H750V625H625Z" />
<glyph unicode="*" glyph-name="asterisk" horiz-adv-x="1125" d="M0 500V375H250V250H125V125H375V250H625V125H875V250H750V375H1000V500H750V625H875V750H625V625H375V750H125V625H250V500H0Z" />
<glyph unicode="+" glyph-name="plus" horiz-adv-x="875" d="M0 500V375H250V125H500V375H750V500H500V750H250V500H0Z" />
<glyph unicode="," glyph-name="comma" horiz-adv-x="1000" d="M375 0H250V-124H500V0H625V250H375V0Z" />
<glyph unicode="-" glyph-name="hyphen" horiz-adv-x="875" d="M0 500V375H750V500H0Z" />
<glyph unicode="." glyph-name="period" horiz-adv-x="1000" d="M625 0V250H375V0H625Z" />
<glyph unicode="/" glyph-name="slash" horiz-adv-x="1125" d="M1000 875H750V750H625V625H500V500H375V375H250V250H125V125H0V0H250V125H375V250H500V375H625V500H750V625H875V750H1000V875Z" />
<glyph unicode="0" glyph-name="zero" horiz-adv-x="875" d="M625 750V875H125V750H0V125H125V0H625V125H750V750H625ZM250 750H500V625H375V500H250V750ZM500 125H250V250H375V375H500V125Z" />
<glyph unicode="1" glyph-name="one" horiz-adv-x="625" d="M125 625H0V500H250V0H500V875H250V750H125V625Z" />
<glyph unicode="2" glyph-name="two" horiz-adv-x="875" d="M125 125H0V0H750V125H375V250H500V375H625V500H750V750H625V875H125V750H0V625H250V750H500V500H375V375H250V250H125V125Z" />
<glyph unicode="3" glyph-name="three" horiz-adv-x="875" d="M250 250H0V125H125V0H625V125H750V375H625V500H750V750H625V875H125V750H0V625H250V750H500V500H250V375H500V125H250V250Z" />
<glyph unicode="4" glyph-name="four" horiz-adv-x="1000" d="M0 250H500V0H750V250H875V375H750V875H375V750H250V625H125V500H0V250ZM375 500V625H500V375H250V500H375Z" />
<glyph unicode="5" glyph-name="five" horiz-adv-x="875" d="M625 625H250V750H750V875H0V500H500V125H250V250H0V125H125V0H625V125H750V500H625V625Z" />
<glyph unicode="6" glyph-name="six" horiz-adv-x="875" d="M625 875H250V750H125V625H0V125H125V0H625V125H750V375H625V500H250V625H375V750H625V875ZM500 125H250V375H500V125Z" />
<glyph unicode="7" glyph-name="seven" horiz-adv-x="875" d="M500 750V500H375V375H250V0H500V375H625V500H750V875H0V750H500Z" />
<glyph unicode="8" glyph-name="eight" horiz-adv-x="875" d="M625 750V875H125V750H0V500H125V375H0V125H125V0H625V125H750V375H625V500H750V750H625ZM250 750H500V500H250V750ZM500 125H250V375H500V125Z" />
<glyph unicode="9" glyph-name="nine" horiz-adv-x="875" d="M625 125V250H750V750H625V875H125V750H0V500H125V375H500V250H375V125H125V0H500V125H625ZM250 750H500V500H250V750Z" />
<glyph unicode=":" glyph-name="colon" horiz-adv-x="750" d="M250 750V500H500V750H250ZM500 0V250H250V0H500Z" />
<glyph unicode=";" glyph-name="semicolon" horiz-adv-x="875" d="M375 0H250V-124H500V0H625V250H375V0ZM375 750V500H625V750H375Z" />
<glyph unicode="&lt;" glyph-name="less" horiz-adv-x="1000" d="M125 500V375H375V250H625V125H875V250H625V375H375V500H125ZM625 625H375V500H625V625ZM625 625H875V750H625V625Z" />
<glyph unicode="=" glyph-name="equal" horiz-adv-x="1000" d="M125 625V500H875V625H125ZM125 375V250H875V375H125Z" />
<glyph unicode="&gt;" glyph-name="greater" horiz-adv-x="1000" d="M375 625V750H125V625H375V500H625V375H875V500H625V625H375ZM125 250V125H375V250H125ZM375 375V250H625V375H375Z" />
<glyph unicode="?" glyph-name="question" horiz-adv-x="875" d="M375 375H250V250H500V375H625V500H750V750H625V875H125V750H0V625H250V750H500V500H375V375ZM250 0H500V125H250V0Z" />
<glyph unicode="@" glyph-name="at" horiz-adv-x="1000" d="M0 750V125H125V0H625V125H250V750H625V625H375V250H875V750H750V875H125V750H0ZM500 500H625V375H500V500Z" />
<glyph unicode="A" glyph-name="A" horiz-adv-x="875" d="M750 0V750H625V875H125V750H0V0H250V375H500V0H750ZM250 500V750H500V500H250Z" />
<glyph unicode="B" glyph-name="B" horiz-adv-x="875" d="M0 875V0H625V125H750V375H625V500H750V750H625V875H0ZM250 750H500V500H250V750ZM250 375H500V125H250V375Z" />
<glyph unicode="C" glyph-name="C" horiz-adv-x="875" d="M0 625V250H125V125H250V0H750V125H375V250H250V625H375V750H750V875H250V750H125V625H0Z" />
<glyph unicode="D" glyph-name="D" horiz-adv-x="875" d="M625 250H750V625H625V750H500V875H0V0H500V125H625V250ZM250 750H375V625H500V250H375V125H250V750Z" />
<glyph unicode="E" glyph-name="E" horiz-adv-x="875" d="M0 0H750V125H250V375H500V500H250V750H750V875H0V0Z" />
<glyph unicode="F" glyph-name="F" horiz-adv-x="875" d="M500 500H250V750H750V875H0V0H250V375H500V500Z" />
<glyph unicode="G" glyph-name="G" horiz-adv-x="875" d="M750 500H375V375H500V125H250V750H500V625H750V750H625V875H125V750H0V125H125V0H750V500Z" />
<glyph unicode="H" glyph-name="H" horiz-adv-x="875" d="M0 875V0H250V375H500V0H750V875H500V500H250V875H0Z" />
<glyph unicode="I" glyph-name="I" horiz-adv-x="625" d="M0 875V750H125V125H0V0H500V125H375V750H500V875H0Z" />
<glyph unicode="J" glyph-name="J" horiz-adv-x="875" d="M0 250V125H125V0H625V125H750V875H500V125H250V250H0Z" />
<glyph unicode="K" glyph-name="K" horiz-adv-x="1000" d="M250 375H375V250H500V125H625V0H875V125H750V250H625V375H500V500H625V625H750V750H875V875H625V750H500V625H375V500H250V875H0V0H250V375Z" />
<glyph unicode="L" glyph-name="L" horiz-adv-x="875" d="M0 875V0H750V125H250V875H0Z" />
<glyph unicode="M" glyph-name="M" horiz-adv-x="1000" d="M375 500V375H500V500H625V0H875V875H625V750H500V625H375V750H250V875H0V0H250V500H375Z" />
<glyph unicode="N" glyph-name="N" horiz-adv-x="1000" d="M500 375V250H625V0H875V875H625V500H500V625H375V750H250V875H0V0H250V500H375V375H500Z" />
<glyph unicode="O" glyph-name="O" horiz-adv-x="875" d="M625 750V875H125V750H0V125H125V0H625V125H750V750H625ZM500 125H250V750H500V125Z" />
<glyph unicode="P" glyph-name="P" horiz-adv-x="875" d="M0 875V0H250V375H625V500H750V750H625V875H0ZM250 750H500V500H250V750Z" />
<glyph unicode="Q" glyph-name="Q" horiz-adv-x="1000" d="M0 750V125H125V0H875V125H750V750H625V875H125V750H0ZM376 125H250V750H500V249H375L376 125Z" />
<glyph unicode="R" glyph-name="R" horiz-adv-x="875" d="M250 0V375H375V250H500V0H750V250H625V500H750V750H625V875H0V0H250ZM250 750H500V500H250V750Z" />
<glyph unicode="S" glyph-name="S" horiz-adv-x="875" d="M375 375V250H500V125H250V250H0V125H125V0H625V125H750V375H625V500H375V625H250V750H500V625H750V750H625V875H125V750H0V500H125V375H375Z" />
<glyph unicode="T" glyph-name="T" horiz-adv-x="875" d="M0 875V750H250V0H500V750H750V875H0Z" />
<glyph unicode="U" glyph-name="U" horiz-adv-x="875" d="M750 875H500V125H250V875H0V125H125V0H625V125H750V875Z" />
<glyph unicode="V" glyph-name="V" horiz-adv-x="875" d="M0 875V375H125V125H250V0H500V125H625V375H750V875H500V375H250V875H0Z" />
<glyph unicode="W" glyph-name="W" horiz-adv-x="1000" d="M875 875H625V375H500V500H375V375H250V875H0V0H250V125H375V250H500V125H625V0H875V875Z" />
<glyph unicode="X" glyph-name="X" horiz-adv-x="1125" d="M875 750H1000V875H750V750H625V625H375V750H250V875H0V750H125V625H250V500H375V375H250V250H125V126H0V0H250V125H375V250H625V125H750V0H1000V125H875V250H750V375H625V500H750V625H875V750Z" />
<glyph unicode="Y" glyph-name="Y" horiz-adv-x="1125" d="M250 875H0V750H125V625H250V500H375V0H625V500H750V625H875V750H1000V875H750V750H625V625H375V750H250V875Z" />
<glyph unicode="Z" glyph-name="Z" horiz-adv-x="1000" d="M750 625V750H875V875H0V750H500V625H375V500H250V375H125V250H0V0H875V125H250V250H375V375H500V500H625V625H750Z" />
<glyph unicode="[" glyph-name="bracketleft" horiz-adv-x="750" d="M125 875V0H625V125H375V750H625V875H125Z" />
<glyph unicode="\" glyph-name="backslash" horiz-adv-x="1125" d="M250 750V875H0V750H125V625H250V500H375V375H500V250H625V125H750V0H1000V125H875V250H750V375H625V500H500V625H375V750H250Z" />
<glyph unicode="]" glyph-name="bracketright" horiz-adv-x="750" d="M125 875V750H375V125H125V0H625V875H125Z" />
<glyph unicode="^" glyph-name="asciicircum" horiz-adv-x="1000" d="M625 500V375H875V500H750V625H625V750H500V875H375V750H250V625H125V500H0V375H250V500H375V625H500V500H625Z" />
<glyph unicode="_" glyph-name="underscore" horiz-adv-x="1000" d="M0 -125H875V0H0V-125Z" />
<glyph unicode="`" glyph-name="grave" horiz-adv-x="625" d="M125 625H250V500H500V625H375V875H125V625Z" />
<glyph unicode="a" glyph-name="a" horiz-adv-x="875" d="M0 125H125V0H750V500H625V625H125V500H500V375H125V250H0V125ZM250 250H500V125H250V250Z" />
<glyph unicode="b" glyph-name="b" horiz-adv-x="875" d="M0 0H625V125H750V500H625V625H250V875H0V0ZM250 500H500V125H250V500Z" />
<glyph unicode="c" glyph-name="c" horiz-adv-x="750" d="M125 500H0V125H125V0H625V125H250V500H625V625H125V500Z" />
<glyph unicode="d" glyph-name="d" horiz-adv-x="875" d="M0 500V125H125V0H750V875H500V625H125V500H0ZM250 500H500V125H250V500Z" />
<glyph unicode="e" glyph-name="e" horiz-adv-x="875" d="M0 500V125H125V0H625V125H250V250H750V500H625V625H125V500H0ZM250 500H500V375H250V500Z" />
<glyph unicode="f" glyph-name="f" horiz-adv-x="750" d="M125 625H0V500H125V0H375V500H625V625H375V750H625V875H250V750H125V625Z" />
<glyph unicode="g" glyph-name="g" horiz-adv-x="875" d="M750 0V625H125V500H0V250H125V125H500V0H125V-125H625V0H750ZM500 500V250H250V500H500Z" />
<glyph unicode="h" glyph-name="h" horiz-adv-x="875" d="M625 625H250V875H0V0H250V500H500V0H750V500H625V625Z" />
<glyph unicode="i" glyph-name="i" horiz-adv-x="500" d="M125 0H375V125H250V625H0V125H125V0ZM250 750V875H0V750H250Z" />
<glyph unicode="j" glyph-name="j" horiz-adv-x="750" d="M0 -125H500V-1H625V625H375V-1H0V-125ZM375 750H625V875H375V750Z" />
<glyph unicode="k" glyph-name="k" horiz-adv-x="875" d="M500 500H375V375H250V875H0V0H250V250H375V125H500V0H750V125H625V250H500V375H625V500H750V625H500V500Z" />
<glyph unicode="l" glyph-name="l" horiz-adv-x="500" d="M250 125V875H0V125H125V0H375V125H250Z" />
<glyph unicode="m" glyph-name="m" horiz-adv-x="1000" d="M0 0H250V375H375V250H500V375H625V0H875V500H750V625H500V500H375V625H0V0Z" />
<glyph unicode="n" glyph-name="n" horiz-adv-x="875" d="M0 0H250V500H500V0H750V500H625V625H0V0Z" />
<glyph unicode="o" glyph-name="o" horiz-adv-x="875" d="M0 500V125H125V0H625V125H750V500H625V625H125V500H0ZM250 500H500V125H250V500Z" />
<glyph unicode="p" glyph-name="p" horiz-adv-x="875" d="M625 250H750V500H625V625H0V-125H250V125H625V250ZM250 500H500V250H250V500Z" />
<glyph unicode="q" glyph-name="q" horiz-adv-x="875" d="M0 500V250H125V125H500V-125L750 -124V625H125V500H0ZM250 500H500V250H250V500Z" />
<glyph unicode="r" glyph-name="r" horiz-adv-x="875" d="M0 0H250V500H500V375H750V500H625V625H0V0Z" />
<glyph unicode="s" glyph-name="s" horiz-adv-x="875" d="M0 125V0H625V125H750V250H625V375H250V500H625V625H125V500H0V375H125V250H500V125H0Z" />
<glyph unicode="t" glyph-name="t" horiz-adv-x="750" d="M125 125H250V0H625V125H375V500H625V625H375V875H125V625H0V500H125V125Z" />
<glyph unicode="u" glyph-name="u" horiz-adv-x="875" d="M750 0V625H500V125H250V625H0V125H125V0H750Z" />
<glyph unicode="v" glyph-name="v" horiz-adv-x="875" d="M500 0V125H625V250H750V625H500V250H250V625H0V250H125V125H250V0H500Z" />
<glyph unicode="w" glyph-name="w" horiz-adv-x="1000" d="M0 625V125H125V0H375V125H500V0H750V125H875V625H625V250H500V375H375V250H250V625H0Z" />
<glyph unicode="x" glyph-name="x" horiz-adv-x="1000" d="M375 125V250H500V125H625V0H875V125H750V250H625V375H750V500H875V625H625V500H500V375H375V500H250V625H0V500H125V375H250V250H125V125H0V0H250V125H375Z" />
<glyph unicode="y" glyph-name="y" horiz-adv-x="875" d="M500 125H625V250H750V625H500V250H250V625H0V250H125V125H250V0H125V-125H375V0H500V125Z" />
<glyph unicode="z" glyph-name="z" horiz-adv-x="875" d="M0 625V500H375V375H250V250H125V125H0V0H750V125H375V250H500V375H625V500H750V625H0Z" />
<glyph unicode="{" glyph-name="braceleft" horiz-adv-x="1000" d="M375 125H500V0H875V125H625V375H500V500H625V750H875V875H500V750H375V500H125V375H375V125Z" />
<glyph unicode="|" glyph-name="bar" horiz-adv-x="500" d="M125 875V0H375V875H125Z" />
<glyph unicode="}" glyph-name="braceright" horiz-adv-x="1000" d="M625 125V375H875V500H625V750H500V875H125V750H375V500H500V375H375V125H125V0H500V125H625Z" />
<glyph unicode="~" glyph-name="FL007Eh" horiz-adv-x="1000" d="M500 625H875V750H500V875H125V750H500V625ZM1000 875H875V750H1000V875ZM125 750H0V625H125V750Z" />
</font>
</defs>
</svg>
